<svg width="513" height="512" viewBox="0 0 513 512" fill="none" xmlns="http://www.w3.org/2000/svg">
<path d="M200.362 268.175L188.707 256.52L257.471 187.756L293.601 223.886L303.314 213.397L257.083 167.165L167.729 255.354L190.261 278.275L200.362 268.175Z" fill="white"/>
<path d="M257.471 345.097L212.794 300.42L223.284 289.93L257.471 324.118L325.847 255.743L314.969 244.865L325.458 234.375L346.825 255.743L257.471 345.097Z" fill="white"/>
<path d="M291.27 256.908L302.537 268.175L292.824 277.887L271.069 256.131L360.423 166.777L449 255.354L359.257 345.097L313.415 299.254L325.07 287.599L360.423 322.953L428.021 255.354L360.423 187.756L291.27 256.908Z" fill="white"/>
<path d="M200.362 213.008L153.743 166L64 255.743L154.908 345.097L243.485 255.743L221.341 234.375L210.463 244.865L222.118 256.52L154.908 324.118L86.1443 255.743L153.743 188.144L190.261 223.109L200.362 213.008Z" fill="white"/>
</svg>
