<svg width="128" height="128" viewBox="0 0 128 128" fill="none" xmlns="http://www.w3.org/2000/svg">
<path fill-rule="evenodd" clip-rule="evenodd" d="M84.5475 2.74999C83.2299 2.7163 81.9419 3.12188 80.9107 3.89515C77.951 6.11596 73.6601 7.70063 69.9773 12.1032C66.2944 16.5058 64.7356 23.051 65.9416 32.8434C66.0497 33.7204 66.39 34.5578 66.9312 35.2787C67.4724 35.9995 68.1972 36.5807 69.0391 36.969C72.1673 38.4116 75.3482 38.6943 78.2419 38.4203C81.1356 38.1462 84.0035 37.9206 86.5311 34.5546C87.1524 33.7271 87.5073 32.7483 87.5531 31.7357C87.5989 30.7231 87.3337 29.7196 86.7894 28.8453C84.2344 24.7425 84.3017 23.2222 84.9323 20.8226C85.5629 18.4229 87.6165 14.9678 89.6391 9.85923C89.9501 9.0734 90.0575 8.22897 89.9524 7.39619C89.8473 6.56341 89.5327 5.76627 89.0348 5.07102C88.5368 4.37577 87.8699 3.80248 87.0895 3.39879C86.309 2.9951 85.4376 2.77269 84.5475 2.74999Z" fill="black"/>
<path fill-rule="evenodd" clip-rule="evenodd" d="M48.0701 3.56413C47.1457 3.60477 46.2449 3.85182 45.4419 4.28492C44.6389 4.71802 43.9567 5.32469 43.4517 6.05499C42.9466 6.78528 42.6332 7.61827 42.5371 8.48514C42.4411 9.352 42.5653 10.228 42.8994 11.0407C44.9026 15.9076 46.809 19.3044 47.3743 21.6963C47.9396 24.0882 47.9611 25.6301 45.4628 29.489C44.9986 30.2064 44.7152 31.0145 44.6343 31.8512C44.5534 32.6879 44.6772 33.531 44.9962 34.3156C45.3151 35.1002 45.8207 35.8055 46.4742 36.3773C47.1277 36.9492 47.9116 37.3723 48.7658 37.6143C48.5142 37.5432 49.9304 38.5074 52.8349 39.0789C55.7393 39.6504 59.1576 39.306 63.7858 37.8874C64.8438 37.563 65.7814 36.9606 66.488 36.1511C67.1946 35.3416 67.6408 34.3588 67.7741 33.3183C69.0007 23.7384 67.1081 17.0391 63.1709 12.7039C59.2338 8.36866 54.784 6.77849 51.8896 4.68943C50.797 3.90207 49.4443 3.50351 48.0701 3.56413Z" fill="black"/>
<path fill-rule="evenodd" clip-rule="evenodd" d="M65.6077 0.53569C64.4562 0.559522 63.3374 0.901805 62.3909 1.52002C61.4443 2.13823 60.7117 3.00507 60.2842 4.01253C55.8675 14.4203 55.8224 24.0485 54.6708 32.5488C54.51 33.7356 54.7621 34.9396 55.3893 35.98C56.0165 37.0204 56.9851 37.8412 58.1496 38.3192C63.6289 40.5678 69.7658 40.3439 75.1901 38.2396C76.5645 37.7062 77.673 36.7016 78.2918 35.4285C78.9107 34.1555 78.994 32.7088 78.5247 31.3802C77.2622 27.806 76.9433 23.5513 76.253 18.6907C75.5627 13.8303 74.3805 8.25801 70.6062 2.97639C70.0569 2.20769 69.3112 1.58132 68.4378 1.15481C67.5645 0.728304 66.5913 0.515576 65.6077 0.53569Z" fill="black"/>
<path fill-rule="evenodd" clip-rule="evenodd" d="M113.648 71.0789C111.338 36.8242 81.5338 31.7069 81.5338 31.7069L50.3599 30.2007C50.3599 30.2007 16.6786 35.4734 14.3475 71.7481C12.6908 97.5278 32.9521 120.449 64.262 121.773C95.8082 123.106 115.282 95.3115 113.648 71.0789Z" fill="#F34444"/>
<path fill-rule="evenodd" clip-rule="evenodd" d="M50.0677 24.5593C49.8357 24.5698 49.6046 24.5931 49.3755 24.6288C49.3755 24.6288 39.5974 26.155 29.7453 32.774C19.8931 39.393 9.63131 51.6498 8.3616 71.4081C6.51385 100.161 29.7014 125.965 63.9932 127.415C81.6856 128.163 96.4019 120.573 106.019 109.61C115.636 98.648 120.553 84.3904 119.632 70.7214C118.375 52.0783 109.224 40.4245 100.362 34.0565C91.4992 27.6885 82.6096 26.1496 82.6096 26.1496C82.3559 26.1064 82.0994 26.0787 81.8419 26.0666L50.6668 24.5608C50.4672 24.5514 50.2673 24.5514 50.0677 24.5608V24.5593Z" fill="black"/>
<path fill-rule="evenodd" clip-rule="evenodd" d="M113.648 71.0789C111.338 36.8242 81.5338 31.7069 81.5338 31.7069L50.3599 30.2007C50.3599 30.2007 16.6786 35.4734 14.3475 71.7481C12.6908 97.5278 32.9521 120.449 64.262 121.773C95.8082 123.106 115.282 95.3115 113.648 71.0789Z" fill="#F34444"/>
<path fill-rule="evenodd" clip-rule="evenodd" d="M71.4983 32.2365C69.2601 14.0628 77.0986 13.4933 84.3971 8.01685C80.7185 17.3082 75.8314 21.6668 81.9622 31.5117C80.6754 33.2252 75.3195 33.9987 71.4983 32.2365Z" fill="#C83737"/>
<path fill-rule="evenodd" clip-rule="evenodd" d="M61.9793 32.6598C64.2176 15.1786 55.6388 14.321 48.3403 9.05322C52.0189 17.9905 56.5771 22.8801 50.4462 32.3499C52.816 33.0208 53.7836 35.1719 61.9793 32.6598Z" fill="#C83737"/>
<path fill-rule="evenodd" clip-rule="evenodd" d="M60.4958 33.2481C61.7053 24.3198 61.7911 15.3604 65.7363 6.06396C71.8009 14.5506 69.7944 24.1829 72.9533 33.1256C68.937 34.6835 64.2398 34.7846 60.4958 33.2481Z" fill="#C83737"/>
<path fill-rule="evenodd" clip-rule="evenodd" d="M32.1872 49.5105C32.787 49.7494 31.5981 53.455 30.4685 59.5644C29.3541 65.5922 28.3095 74.1667 30.2711 83.0857C30.2953 83.1977 30.3201 83.3098 30.3452 83.4219C31.5912 88.9669 33.8239 93.7575 36.4599 97.6513C42.3869 106.447 49.2639 110.389 48.8603 111.073C48.7242 111.304 40.859 109.319 33.4938 99.8017C30.3328 95.6998 27.6786 90.4629 26.3032 84.3291C26.2754 84.2052 26.2482 84.0813 26.2218 83.9575C24.1357 74.0744 25.7248 64.9826 27.626 58.8592C29.5521 52.6555 31.7461 49.3349 32.1872 49.5105Z" fill="black"/>
<path d="M89 53C109.435 53 126 69.5584 126 89.9854C126.008 99.6958 122.195 109.02 115.384 115.944C108.574 122.868 99.3124 126.838 89.5995 126.995C79.8865 127.152 70.5012 123.485 63.47 116.785C56.4387 110.085 52.3256 100.889 52.0185 91.1837L52 89.9854L52.0148 88.9498C52.5624 69.0036 68.909 53 89 53ZM89.037 101.081L88.5671 101.107C87.6678 101.214 86.839 101.647 86.2376 102.324C85.6363 103 85.3041 103.874 85.3041 104.78C85.3041 105.685 85.6363 106.559 86.2376 107.235C86.839 107.912 87.6678 108.345 88.5671 108.452L89 108.478L89.4699 108.452C90.3692 108.345 91.198 107.912 91.7994 107.235C92.4007 106.559 92.7329 105.685 92.7329 104.78C92.7329 103.874 92.4007 103 91.7994 102.324C91.198 101.647 90.3692 101.214 89.4699 101.107L89.037 101.081ZM89 71.4927C88.0937 71.4928 87.219 71.8254 86.5418 72.4274C85.8646 73.0293 85.4319 73.8588 85.3259 74.7585L85.3 75.1912V89.9854L85.3259 90.4181C85.4329 91.317 85.8659 92.1455 86.5431 92.7466C87.2202 93.3478 88.0944 93.6798 89 93.6798C89.9056 93.6798 90.7798 93.3478 91.4569 92.7466C92.1341 92.1455 92.5671 91.317 92.6741 90.4181L92.7 89.9854V75.1912L92.6741 74.7585C92.5681 73.8588 92.1354 73.0293 91.4582 72.4274C90.7809 71.8254 89.9062 71.4928 89 71.4927Z" fill="#FFCF14"/>
</svg>
