<svg width="512" height="512" viewBox="0 0 512 512" fill="none" xmlns="http://www.w3.org/2000/svg">
<path d="M45 173C45 112.66 45 82.4903 63.7452 63.7452C82.4903 45 112.66 45 173 45H339C399.34 45 429.51 45 448.255 63.7452C467 82.4903 467 112.66 467 173V339C467 399.34 467 429.51 448.255 448.255C429.51 467 399.34 467 339 467H173C112.66 467 82.4903 467 63.7452 448.255C45 429.51 45 399.34 45 339V173Z" fill="white"/>
<path d="M206.623 233.101L196.542 223.02L256.016 163.547L287.265 194.796L295.665 185.724L255.68 145.738L178.398 222.012L197.886 241.837L206.623 233.101Z" fill="#C20000"/>
<path d="M256.016 299.63L217.375 260.989L226.447 251.917L256.016 281.486L315.153 222.348L305.745 212.94L314.817 203.868L333.298 222.348L256.016 299.63Z" fill="#C20000"/>
<path d="M285.249 223.356L294.993 233.101L286.593 241.501L267.776 222.684L345.058 145.402L421.668 222.012L344.05 299.63L304.401 259.981L314.481 249.901L345.058 280.478L403.524 222.012L345.058 163.547L285.249 223.356Z" fill="#092846"/>
<path d="M206.623 185.387L166.302 144.73L88.6836 222.348L167.31 299.63L243.92 222.348L224.767 203.868L215.359 212.94L225.439 223.02L167.31 281.486L107.836 222.348L166.302 163.883L197.886 194.124L206.623 185.387Z" fill="#092846"/>
<path d="M401.605 352.335C401.605 367.995 395.184 376.295 382.969 376.295C370.754 376.295 364.412 367.995 364.334 352.726V342.86C364.334 327.357 370.754 319.057 382.891 319.057C395.106 319.057 401.526 327.2 401.605 342.625V352.335ZM391.112 341.451C391.112 331.82 388.607 327.357 382.891 327.357C377.41 327.357 374.983 331.742 374.904 340.668V353.744C374.904 363.532 377.488 367.995 382.969 367.995C388.45 367.995 390.956 363.767 391.112 354.292V341.451Z" fill="#092846"/>
<path d="M349.436 327.827C338.239 327.67 331.818 333.464 330.487 342.939C333.462 339.963 337.221 338.397 341.919 338.397C351.55 338.397 357.736 345.992 357.736 357.189C357.736 367.682 350.845 376.295 339.178 376.295C328.451 376.295 319.681 368.23 319.681 354.292V350.142C319.681 345.053 320.543 340.511 322.344 336.44C326.415 325.556 335.576 319.37 347.713 319.37H349.436V327.827ZM338.708 346.619C334.793 346.619 331.583 349.046 330.252 352.178V355.545C330.252 363.453 333.541 367.995 338.943 367.995C343.876 367.995 347.165 363.532 347.165 357.346C347.165 350.925 343.876 346.619 338.708 346.619Z" fill="#092846"/>
<path d="M285.991 351.082V343.095H291.785C297.345 343.017 300.477 340.12 300.477 335.03C300.477 330.176 297.736 327.357 292.568 327.357C288.105 327.357 284.817 330.176 284.817 334.326H274.168C274.168 327.435 279.571 319.135 292.334 319.057C304 318.979 310.969 325.008 310.969 334.874C310.969 339.728 307.837 344.426 302.278 346.932C308.307 348.968 311.909 353.509 311.909 359.93C311.909 369.874 304 376.295 292.334 376.295C281.137 376.216 273.463 369.952 273.463 360.321H284.112C284.112 364.785 287.636 367.995 292.568 367.995C298.05 367.995 301.26 364.863 301.26 359.852C301.26 353.901 297.893 351.16 291.942 351.082H285.991Z" fill="#092846"/>
<path d="M269.839 343.722C268.743 343.408 267.255 343.408 265.924 343.408C261.618 343.408 258.799 344.975 257.468 348.107V375.512H246.819V334.169H256.92L257.154 339.259C259.425 335.344 262.557 333.386 266.551 333.386C267.96 333.386 269.056 333.543 269.996 333.856L269.839 343.722Z" fill="#092846"/>
<path d="M229.034 375.512C228.643 374.651 228.251 373.319 227.938 371.518C225.197 374.729 221.596 376.295 217.211 376.295C209.224 376.295 203.195 370.97 203.195 363.923C203.195 355.075 210.085 350.299 222.379 350.299H227.546V347.715C227.546 343.487 225.354 341.059 221.047 341.059C217.211 341.059 214.705 343.095 214.705 346.384H204.213C204.213 339.18 211.416 333.386 221.596 333.386C231.775 333.386 237.882 338.71 238.117 347.402V365.959C238.117 369.796 238.665 372.771 239.683 374.885V375.512H229.034ZM219.56 368.308C223.162 368.308 226.215 366.272 227.546 363.845V356.485H223.083C216.898 356.485 213.844 358.677 213.844 363.14C213.844 366.272 216.115 368.308 219.56 368.308Z" fill="#092846"/>
<path d="M160.944 334.169H170.888L171.28 339.18C174.177 335.344 178.17 333.386 183.26 333.386C191.951 333.386 196.258 338.476 196.336 348.576V375.512H185.766V348.89C185.687 343.957 183.886 341.764 178.953 341.764C175.586 341.764 173.003 343.408 171.515 346.227V375.512H160.944V334.169Z" fill="#092846"/>
<path d="M146.273 375.512L142.202 363.453H121.843L117.772 375.512H106.183L126.855 319.84H137.034L157.862 375.512H146.273ZM131.944 332.838L124.662 354.84H139.383L131.944 332.838Z" fill="#092846"/>
</svg>
